<svg width="50" height="50" viewBox="0 0 50 50" fill="none" xmlns="http://www.w3.org/2000/svg">
<path d="M14.5834 14.5833H12.5C11.395 14.5833 10.3352 15.0222 9.55376 15.8036C8.77236 16.585 8.33337 17.6449 8.33337 18.7499V37.4999C8.33337 38.605 8.77236 39.6648 9.55376 40.4462C10.3352 41.2276 11.395 41.6666 12.5 41.6666H31.25C32.3551 41.6666 33.4149 41.2276 34.1963 40.4462C34.9777 39.6648 35.4167 38.605 35.4167 37.4999V35.4166" stroke="#6065E3" stroke-width="4" stroke-linecap="round" stroke-linejoin="round"/>
<path d="M33.3333 10.4166L39.5833 16.6666M42.4688 13.7187C43.2893 12.8982 43.7502 11.7854 43.7502 10.625C43.7502 9.4646 43.2893 8.35174 42.4688 7.53123C41.6482 6.71072 40.5354 6.24976 39.375 6.24976C38.2146 6.24976 37.1018 6.71072 36.2813 7.53123L18.75 25V31.25H25L42.4688 13.7187Z" stroke="#6065E3" stroke-width="4" stroke-linecap="round" stroke-linejoin="round"/>
</svg>
