<svg width="30" height="30" viewBox="0 0 30 30" fill="none" xmlns="http://www.w3.org/2000/svg">
<path fill-rule="evenodd" clip-rule="evenodd" d="M10 3.33333C10 2.44928 10.3512 1.60143 10.9763 0.976311C11.6014 0.351189 12.4493 0 13.3333 0H16.6667C17.5507 0 18.3986 0.351189 19.0237 0.976311C19.6488 1.60143 20 2.44928 20 3.33333V10H26.6667C27.5507 10 28.3986 10.3512 29.0237 10.9763C29.6488 11.6014 30 12.4493 30 13.3333V16.6667C30 17.5507 29.6488 18.3986 29.0237 19.0237C28.3986 19.6488 27.5507 20 26.6667 20H20V26.6667C20 27.5507 19.6488 28.3986 19.0237 29.0237C18.3986 29.6488 17.5507 30 16.6667 30H13.3333C12.4493 30 11.6014 29.6488 10.9763 29.0237C10.3512 28.3986 10 27.5507 10 26.6667V20H3.33333C2.44928 20 1.60143 19.6488 0.976311 19.0237C0.351189 18.3986 0 17.5507 0 16.6667V13.3333C0 12.4493 0.351189 11.6014 0.976311 10.9763C1.60143 10.3512 2.44928 10 3.33333 10H10V3.33333Z" fill="white"/>
</svg>
