<svg width="25" height="26" viewBox="0 0 25 26" fill="none" xmlns="http://www.w3.org/2000/svg">
<path d="M13.2335 20.8604C13.1242 20.7516 13.0375 20.6222 12.9784 20.4798C12.9192 20.3373 12.8888 20.1846 12.8888 20.0304C12.8888 19.8761 12.9192 19.7234 12.9784 19.581C13.0375 19.4385 13.1242 19.3091 13.2335 19.2003L18.2618 14.172L3.9063 14.172C3.5955 14.172 3.29743 14.0485 3.07766 13.8287C2.85789 13.6089 2.73443 13.3109 2.73443 13.0001C2.73443 12.6893 2.85789 12.3912 3.07766 12.1714C3.29743 11.9517 3.5955 11.8282 3.9063 11.8282L18.2618 11.8282L13.2335 6.79793C13.0133 6.57778 12.8896 6.27919 12.8896 5.96785C12.8896 5.65651 13.0133 5.35793 13.2335 5.13777C13.4536 4.91762 13.7522 4.79394 14.0635 4.79394C14.3749 4.79394 14.6735 4.91762 14.8936 5.13777L21.9249 12.169C22.0341 12.2779 22.1208 12.4073 22.1799 12.5497C22.2391 12.6921 22.2695 12.8449 22.2695 12.9991C22.2695 13.1533 22.2391 13.3061 22.1799 13.4485C22.1208 13.5909 22.0341 13.7203 21.9249 13.8292L14.8936 20.8604C14.7847 20.9697 14.6554 21.0564 14.5129 21.1155C14.3705 21.1747 14.2178 21.2051 14.0635 21.2051C13.9093 21.2051 13.7566 21.1747 13.6141 21.1155C13.4717 21.0564 13.3423 20.9697 13.2335 20.8604Z" fill="white"/>
</svg>
