<svg width="40" height="40" viewBox="0 0 40 40" fill="none" xmlns="http://www.w3.org/2000/svg">
<path d="M32.7594 19.1156C32.8756 19.2317 32.9678 19.3696 33.0307 19.5213C33.0936 19.6731 33.126 19.8357 33.126 20C33.126 20.1643 33.0936 20.3269 33.0307 20.4787C32.9678 20.6304 32.8756 20.7683 32.7594 20.8844L19.939 33.6969C18.2978 35.3379 16.0719 36.2597 13.751 36.2596C11.4301 36.2594 9.20429 35.3373 7.56327 33.6961C5.92224 32.0549 5.0004 29.8289 5.00055 27.508C5.0007 25.1871 5.92281 22.9613 7.56405 21.3203L23.0734 5.58281C24.2451 4.40985 25.8348 3.75039 27.4928 3.74951C29.1507 3.74863 30.7411 4.4064 31.9141 5.57812C33.087 6.74984 33.7465 8.33952 33.7474 9.99746C33.7482 11.6554 33.0905 13.2458 31.9187 14.4187L16.4062 30.1562C15.7018 30.8607 14.7463 31.2565 13.75 31.2565C12.7537 31.2565 11.7982 30.8607 11.0937 30.1562C10.3893 29.4518 9.99348 28.4963 9.99348 27.5C9.99348 26.5037 10.3893 25.5482 11.0937 24.8437L24.1094 11.6219C24.2234 11.5002 24.3606 11.4027 24.5129 11.3348C24.6652 11.267 24.8295 11.2304 24.9962 11.227C25.1628 11.2237 25.3285 11.2537 25.4834 11.3153C25.6383 11.3769 25.7793 11.4689 25.8981 11.5859C26.017 11.7028 26.1112 11.8423 26.1753 11.9962C26.2394 12.1501 26.272 12.3153 26.2713 12.482C26.2706 12.6487 26.2366 12.8136 26.1712 12.967C26.1058 13.1203 26.0104 13.2591 25.8906 13.375L12.8734 26.6109C12.7569 26.7266 12.6642 26.864 12.6008 27.0154C12.5374 27.1669 12.5044 27.3293 12.5037 27.4935C12.5031 27.6576 12.5348 27.8203 12.597 27.9722C12.6592 28.1242 12.7508 28.2624 12.8664 28.3789C12.982 28.4955 13.1195 28.5881 13.2709 28.6515C13.4223 28.7149 13.5847 28.7479 13.7489 28.7486C13.9131 28.7492 14.0758 28.7175 14.2277 28.6553C14.3796 28.5931 14.5178 28.5016 14.6344 28.3859L30.1453 12.6562C30.8498 11.9532 31.2461 10.9991 31.2472 10.0039C31.2482 9.0086 30.8538 8.0537 30.1508 7.34922C29.4477 6.64473 28.4936 6.24839 27.4984 6.24736C26.5031 6.24633 25.5482 6.64072 24.8437 7.34375L9.33749 23.075C8.75659 23.655 8.29562 24.3437 7.98089 25.1018C7.66616 25.8599 7.50383 26.6726 7.50318 27.4935C7.50253 28.3143 7.66356 29.1273 7.97708 29.8859C8.29061 30.6445 8.75048 31.3339 9.33045 31.9148C9.91043 32.4957 10.5991 32.9567 11.3573 33.2714C12.1154 33.5862 12.9281 33.7485 13.7489 33.7491C14.5698 33.7498 15.3827 33.5888 16.1413 33.2752C16.9 32.9617 17.5894 32.5018 18.1703 31.9219L30.9922 19.1094C31.2274 18.876 31.5457 18.7455 31.8771 18.7467C32.2084 18.7478 32.5258 18.8805 32.7594 19.1156Z" fill="#646464"/>
</svg>
