<svg width="30" height="30" viewBox="0 0 30 30" fill="none" xmlns="http://www.w3.org/2000/svg">
<path fill-rule="evenodd" clip-rule="evenodd" d="M15 10.3125C13.7568 10.3125 12.5645 10.8064 11.6854 11.6854C10.8064 12.5645 10.3125 13.7568 10.3125 15C10.3125 16.2432 10.8064 17.4355 11.6854 18.3146C12.5645 19.1936 13.7568 19.6875 15 19.6875C16.2432 19.6875 17.4355 19.1936 18.3146 18.3146C19.1936 17.4355 19.6875 16.2432 19.6875 15C19.6875 13.7568 19.1936 12.5645 18.3146 11.6854C17.4355 10.8064 16.2432 10.3125 15 10.3125ZM12.1875 15C12.1875 14.2541 12.4838 13.5387 13.0113 13.0113C13.5387 12.4838 14.2541 12.1875 15 12.1875C15.7459 12.1875 16.4613 12.4838 16.9887 13.0113C17.5162 13.5387 17.8125 14.2541 17.8125 15C17.8125 15.7459 17.5162 16.4613 16.9887 16.9887C16.4613 17.5162 15.7459 17.8125 15 17.8125C14.2541 17.8125 13.5387 17.5162 13.0113 16.9887C12.4838 16.4613 12.1875 15.7459 12.1875 15Z" fill="white"/>
<path fill-rule="evenodd" clip-rule="evenodd" d="M14.9687 1.5625C14.4125 1.5625 13.9487 1.5625 13.5687 1.5875C13.1803 1.60367 12.7972 1.68392 12.435 1.825C12.0178 1.99761 11.6387 2.25072 11.3193 2.56986C11 2.889 10.7466 3.26793 10.5737 3.685C10.3925 4.1225 10.3437 4.585 10.3237 5.0875C10.3217 5.27128 10.2731 5.45153 10.1823 5.61136C10.0916 5.77119 9.96174 5.90534 9.80496 6.00125C9.64357 6.08938 9.46242 6.13504 9.27853 6.13395C9.09464 6.13285 8.91405 6.08504 8.75371 5.995C8.30871 5.76 7.88371 5.57125 7.41371 5.50875C6.96614 5.44988 6.51136 5.47974 6.07533 5.59663C5.6393 5.71352 5.23057 5.91515 4.87246 6.19C4.56968 6.4336 4.30911 6.72543 4.10121 7.05375C3.88871 7.37125 3.65621 7.7725 3.37871 8.25375L3.34746 8.30875C3.06871 8.79 2.83746 9.19125 2.66996 9.53375C2.49496 9.89125 2.35746 10.2437 2.30746 10.6337C2.18821 11.5375 2.43281 12.4516 2.98746 13.175C3.27621 13.5512 3.65246 13.825 4.07746 14.0925C4.23591 14.1862 4.36793 14.3186 4.46108 14.4774C4.55424 14.6361 4.60547 14.816 4.60996 15C4.60547 15.184 4.55424 15.3639 4.46108 15.5226C4.36793 15.6814 4.23591 15.8138 4.07746 15.9075C3.65246 16.175 3.27746 16.4488 2.98746 16.825C2.71261 17.1831 2.51098 17.5918 2.39409 18.0279C2.2772 18.4639 2.24734 18.9187 2.30621 19.3662C2.35746 19.7563 2.49371 20.1087 2.66871 20.4662C2.83746 20.8087 3.06871 21.21 3.34746 21.6912L3.37871 21.7463C3.65621 22.2275 3.88871 22.6287 4.10121 22.9463C4.32246 23.275 4.55996 23.5713 4.87246 23.8088C5.23047 24.0838 5.63917 24.2857 6.0752 24.4028C6.51123 24.5199 6.96606 24.5499 7.41371 24.4913C7.88371 24.4288 8.30871 24.2413 8.75371 24.005C8.91386 23.9151 9.09424 23.8673 9.27791 23.8662C9.46157 23.8651 9.64251 23.9107 9.80371 23.9987C9.96136 24.0939 10.092 24.2278 10.1833 24.3878C10.2745 24.5477 10.3233 24.7284 10.325 24.9125C10.3437 25.415 10.3925 25.8775 10.575 26.315C10.7476 26.7322 11.0007 27.1113 11.3198 27.4306C11.639 27.75 12.0179 28.0034 12.435 28.1763C12.7975 28.3263 13.1725 28.385 13.5687 28.4113C13.9487 28.4375 14.4125 28.4375 14.9687 28.4375H15.0312C15.5875 28.4375 16.0512 28.4375 16.4312 28.4125C16.8287 28.385 17.2025 28.3263 17.565 28.175C17.9822 28.0024 18.3612 27.7493 18.6806 27.4301C19 27.111 19.2533 26.7321 19.4262 26.315C19.6075 25.8775 19.6562 25.415 19.6762 24.9125C19.678 24.7285 19.7266 24.548 19.8173 24.3879C19.908 24.2279 20.038 24.0935 20.195 23.9975C20.3565 23.9096 20.5377 23.8641 20.7216 23.8654C20.9054 23.8667 21.086 23.9148 21.2462 24.005C21.6912 24.24 22.1162 24.4287 22.5862 24.49C23.49 24.6092 24.404 24.3647 25.1275 23.81C25.44 23.57 25.6775 23.275 25.8987 22.9463C26.1112 22.6287 26.3437 22.2275 26.6212 21.7463L26.6525 21.6912C26.9312 21.21 27.1625 20.8087 27.33 20.4662C27.505 20.1087 27.6425 19.755 27.6925 19.3662C27.8117 18.4625 27.5671 17.5484 27.0125 16.825C26.7237 16.4488 26.3475 16.175 25.9225 15.9075C25.764 15.8138 25.632 15.6814 25.5388 15.5226C25.4457 15.3639 25.3945 15.184 25.39 15C25.39 14.6525 25.58 14.3075 25.9225 14.0925C26.3475 13.825 26.7225 13.5512 27.0125 13.175C27.2873 12.8169 27.4889 12.4082 27.6058 11.9721C27.7227 11.5361 27.7526 11.0813 27.6937 10.6337C27.6342 10.2496 27.5117 9.87798 27.3312 9.53375C27.1178 9.11843 26.8914 8.7099 26.6525 8.30875L26.6212 8.25375C26.3929 7.84636 26.1519 7.44617 25.8987 7.05375C25.6908 6.72577 25.4302 6.43436 25.1275 6.19125C24.7694 5.91618 24.3608 5.71432 23.9247 5.59722C23.4887 5.48012 23.0339 5.45005 22.5862 5.50875C22.1162 5.57125 21.6912 5.75875 21.2462 5.995C21.086 6.08482 20.9057 6.13251 20.722 6.1336C20.5384 6.13469 20.3575 6.08916 20.1962 6.00125C20.039 5.90565 19.9086 5.77162 19.8174 5.61177C19.7263 5.45193 19.6772 5.27151 19.675 5.0875C19.6562 4.585 19.6075 4.1225 19.425 3.685C19.2524 3.26781 18.9992 2.88871 18.6801 2.56936C18.361 2.25 17.982 1.99664 17.565 1.82375C17.2025 1.67375 16.8275 1.615 16.4312 1.58875C16.0512 1.5625 15.5875 1.5625 15.0312 1.5625H14.9687ZM13.1525 3.55625C13.2487 3.51625 13.395 3.48 13.6962 3.45875C14.005 3.4375 14.405 3.4375 15 3.4375C15.595 3.4375 15.995 3.4375 16.3037 3.45875C16.605 3.48 16.7512 3.51625 16.8475 3.55625C17.2312 3.715 17.535 4.01875 17.6937 4.4025C17.7437 4.5225 17.785 4.71125 17.8012 5.1575C17.8387 6.1475 18.35 7.10125 19.2575 7.625C20.165 8.15 21.2462 8.115 22.1225 7.6525C22.5175 7.44375 22.7012 7.385 22.8312 7.36875C23.2419 7.31448 23.6574 7.42554 23.9862 7.6775C24.0687 7.74125 24.1737 7.85 24.3425 8.1C24.5162 8.3575 24.7162 8.70375 25.0137 9.21875C25.3112 9.73375 25.51 10.0812 25.6462 10.3587C25.78 10.63 25.8212 10.775 25.8337 10.8787C25.888 11.2895 25.7769 11.7049 25.525 12.0337C25.445 12.1375 25.3025 12.2675 24.925 12.505C24.085 13.0325 23.515 13.9525 23.515 15C23.515 16.0475 24.085 16.9675 24.925 17.495C25.3025 17.7325 25.445 17.8625 25.525 17.9662C25.7775 18.295 25.8875 18.71 25.8337 19.1213C25.8212 19.225 25.7787 19.3713 25.6462 19.6413C25.51 19.92 25.3112 20.2663 25.0137 20.7812C24.7162 21.2962 24.515 21.6425 24.3425 21.9C24.1737 22.15 24.0687 22.2587 23.9862 22.3225C23.6574 22.5745 23.2419 22.6855 22.8312 22.6312C22.7012 22.615 22.5187 22.5562 22.1225 22.3475C21.2475 21.885 20.165 21.85 19.2575 22.3738C18.35 22.8988 17.8387 23.8525 17.8012 24.8425C17.785 25.2888 17.7437 25.4775 17.6937 25.5975C17.6152 25.7872 17.5 25.9597 17.3548 26.1049C17.2096 26.2501 17.0372 26.3652 16.8475 26.4438C16.7512 26.4838 16.605 26.52 16.3037 26.5413C15.995 26.5625 15.595 26.5625 15 26.5625C14.405 26.5625 14.005 26.5625 13.6962 26.5413C13.395 26.52 13.2487 26.4838 13.1525 26.4438C12.9627 26.3652 12.7903 26.2501 12.6451 26.1049C12.4999 25.9597 12.3847 25.7872 12.3062 25.5975C12.2562 25.4775 12.215 25.2888 12.1987 24.8425C12.1612 23.8525 11.65 22.8988 10.7425 22.375C9.83496 21.85 8.75371 21.885 7.87746 22.3475C7.48246 22.5562 7.29871 22.615 7.16871 22.6312C6.75801 22.6855 6.34256 22.5745 6.01371 22.3225C5.93121 22.2587 5.82621 22.15 5.65746 21.9C5.42235 21.534 5.1985 21.1609 4.98621 20.7812C4.68871 20.2663 4.48996 19.9188 4.35371 19.6413C4.21996 19.37 4.17871 19.225 4.16621 19.1213C4.11194 18.7105 4.223 18.2951 4.47496 17.9662C4.55496 17.8625 4.69746 17.7325 5.07496 17.495C5.91496 16.9675 6.48496 16.0475 6.48496 15C6.48496 13.9525 5.91496 13.0325 5.07496 12.505C4.69746 12.2675 4.55496 12.1375 4.47496 12.0337C4.223 11.7049 4.11194 11.2895 4.16621 10.8787C4.17871 10.775 4.22121 10.6287 4.35371 10.3587C4.48996 10.08 4.68871 9.73375 4.98621 9.21875C5.28371 8.70375 5.48496 8.3575 5.65746 8.1C5.82621 7.85 5.93121 7.74125 6.01371 7.6775C6.34256 7.42554 6.75801 7.31448 7.16871 7.36875C7.29871 7.385 7.48121 7.44375 7.87746 7.6525C8.75246 8.115 9.83496 8.15 10.7425 7.625C11.65 7.10125 12.1612 6.1475 12.1987 5.1575C12.215 4.71125 12.2562 4.5225 12.3062 4.4025C12.465 4.01875 12.7687 3.715 13.1525 3.55625Z" fill="white"/>
</svg>
