<svg width="30" height="30" viewBox="0 0 30 30" fill="none" xmlns="http://www.w3.org/2000/svg">
<path d="M8.77778 9.77778H21.2222M8.77778 16H18.1111M24.3333 2C25.571 2 26.758 2.49167 27.6332 3.36684C28.5083 4.242 29 5.42899 29 6.66667V19.1111C29 20.3488 28.5083 21.5358 27.6332 22.4109C26.758 23.2861 25.571 23.7778 24.3333 23.7778H16.5556L8.77778 28.4444V23.7778H5.66667C4.42899 23.7778 3.242 23.2861 2.36684 22.4109C1.49167 21.5358 1 20.3488 1 19.1111V6.66667C1 5.42899 1.49167 4.242 2.36684 3.36684C3.242 2.49167 4.42899 2 5.66667 2H24.3333Z" stroke="white" stroke-width="2" stroke-linecap="round" stroke-linejoin="round"/>
</svg>
